<svg xmlns="http://www.w3.org/2000/svg" width="87.035" height="86.198" viewBox="0 0 87.035 86.198"><g transform="translate(-2 -2.5)"><path d="M16.312,53.828,10,47.516,53.709,3.807a4.463,4.463,0,0,1,6.312,0h0a4.464,4.464,0,0,1,0,6.312Z" transform="translate(27.706 0)" fill="#d9925f"/><path d="M32.976,59.3a2.871,2.871,0,0,1-1.089-.212A45.418,45.418,0,0,1,2.01,20.164a2.915,2.915,0,0,1,3.546-3.086,30.681,30.681,0,0,0,21.805-2.938l.042-.023,5.026-2.768a2.915,2.915,0,0,1,3.3.338L52.12,25.679a2.908,2.908,0,0,1,.77,3.394c-.046.106-1.42,3.094-2.426,5.281L49.432,36.6A79.461,79.461,0,0,1,35.079,58.406a2.914,2.914,0,0,1-2.1.9Z" transform="translate(0 29.396)" fill="#bf8339"/><path d="M28.813,34.447,8.586,14.22l6.357-3.178a7.2,7.2,0,0,1,8.3,1.347l7.4,7.4a7.2,7.2,0,0,1,1.348,8.3Z" transform="translate(22.808 26.95)" fill="#2d4b73"/><rect width="26.78" height="8.927" transform="matrix(0.707, -0.707, 0.707, 0.707, 57.138, 28.085)" fill="#2d4b73"/><path d="M10.787,30.647A60.728,60.728,0,0,0,24.728,16,57.785,57.785,0,0,1,3.17,20.45a43.759,43.759,0,0,0,7.617,10.2Z" transform="translate(4.052 46.755)" fill="#cf964f"/></g></svg>