<svg xmlns="http://www.w3.org/2000/svg" width="83.713" height="71.395" viewBox="0 0 83.713 71.395"><g transform="translate(-0.755 -29)"><rect width="77.441" height="70.5" transform="translate(3.891 29)" fill="none"/><rect width="38.721" height="20.735" transform="translate(3.755 34.215)" fill="#fff"/><path d="M48.507,39.06V56.037H14.318a1.9,1.9,0,0,1-1.648-2.074V39.06Z" transform="translate(-6.032 -4.845)" fill="#bf8339"/><rect width="38.721" height="20.735" rx="4.92" transform="translate(3.755 34.215)" stroke-width="6" stroke="#2f4360" stroke-linecap="round" stroke-linejoin="round" fill="none"/><rect width="38.721" height="20.735" transform="translate(23.115 55.453)" fill="#fff"/><path d="M95.507,80V96.977H61.318A1.9,1.9,0,0,1,59.67,94.9V80Z" transform="translate(-33.672 -24.563)" fill="#bf8339"/><rect width="38.721" height="20.735" rx="4.92" transform="translate(23.115 55.453)" stroke-width="6" stroke="#2f4360" stroke-linecap="round" stroke-linejoin="round" fill="none"/><rect width="38.721" height="20.735" transform="translate(42.475 34.215)" fill="#fff"/><path d="M142.507,39.06V56.037H108.318a1.9,1.9,0,0,1-1.648-2.074V39.06Z" transform="translate(-61.311 -4.845)" fill="#bf8339"/><rect width="38.721" height="20.735" rx="4.92" transform="translate(42.475 34.215)" stroke-width="6" stroke="#2f4360" stroke-linecap="round" stroke-linejoin="round" fill="none"/><rect width="19.36" height="20.735" transform="translate(3.755 55.438)" fill="#fff"/><rect width="19.36" height="16.977" transform="translate(3.755 55.438)" fill="#bf8339"/><path d="M5.67,82.545v15.64a2.334,2.334,0,0,0,2.027,2.55H25.03V80H7.7a1.838,1.838,0,0,0-1.433.744,2.912,2.912,0,0,0-.594,1.8Z" transform="translate(-1.915 -24.562)" fill="none" stroke="#2f4360" stroke-linecap="round" stroke-linejoin="round" stroke-width="6"/><rect width="19.36" height="20.735" transform="translate(62.107 55.438)" fill="#fff"/><rect width="19.36" height="16.977" transform="translate(62.107 55.438)" fill="#bf8339"/><path d="M166.69,82.545v15.64a2.334,2.334,0,0,1-2.027,2.55H147.33V80h17.334a1.838,1.838,0,0,1,1.433.744A2.912,2.912,0,0,1,166.69,82.545Z" transform="translate(-85.223 -24.562)" fill="none" stroke="#2f4360" stroke-linecap="round" stroke-linejoin="round" stroke-width="6"/><rect width="38.721" height="20.735" transform="translate(3.755 76.66)" fill="#fff"/><path d="M48.507,120.94v16.977H14.318a1.9,1.9,0,0,1-1.648-2.074v-14.9Z" transform="translate(-6.032 -44.28)" fill="#bf8339"/><rect width="38.721" height="20.735" rx="4.92" transform="translate(3.755 76.66)" stroke-width="6" stroke="#2f4360" stroke-linecap="round" stroke-linejoin="round" fill="none"/><rect width="38.721" height="20.735" transform="translate(42.475 76.66)" fill="#fff"/><path d="M142.507,120.94v16.977H108.318a1.9,1.9,0,0,1-1.648-2.074v-14.9Z" transform="translate(-61.311 -44.28)" fill="#bf8339"/><rect width="38.721" height="20.735" rx="4.92" transform="translate(42.475 76.66)" stroke-width="6" stroke="#2f4360" stroke-linecap="round" stroke-linejoin="round" fill="none"/><rect width="81" height="70" transform="translate(1.773 29)" fill="none"/></g></svg>