<svg xmlns="http://www.w3.org/2000/svg" width="77.851" height="77.851" viewBox="0 0 77.851 77.851"><g transform="translate(-13.5 -13.5)"><g transform="translate(13.5 13.5)"><g transform="translate(0 0)"><g transform="translate(58.543 35.745)"><path d="M388.761,245.862a1.125,1.125,0,0,1-.961-.541,15.987,15.987,0,0,0-8.806-6.942,1.123,1.123,0,1,1,.681-2.14,18.231,18.231,0,0,1,10.044,7.917,1.123,1.123,0,0,1-.377,1.544A1.1,1.1,0,0,1,388.761,245.862Z" transform="translate(-378.21 -236.185)" fill="#1b3954"/></g><g transform="translate(6.775 30.825)"><path d="M67.116,216.812a1.158,1.158,0,0,1-.342-.053,18.28,18.28,0,0,1-10.962-9.626,1.123,1.123,0,1,1,2.034-.955,16.028,16.028,0,0,0,9.61,8.44,1.124,1.124,0,0,1-.34,2.194Z" transform="translate(-55.706 -205.531)" fill="#1b3954"/></g><g transform="translate(22.227 32.842)"><path d="M184.242,230.681a1.123,1.123,0,0,1-1.124-1.124v-9.211h-28.9v8.087h23.737a1.124,1.124,0,1,1,0,2.247H153.094a1.123,1.123,0,0,1-1.124-1.124V219.224a1.123,1.123,0,0,1,1.124-1.124h31.149a1.123,1.123,0,0,1,1.124,1.124v10.334A1.124,1.124,0,0,1,184.242,230.681Z" transform="translate(-151.97 -218.1)" fill="#1b3954"/></g><g transform="translate(62.024 55.745)"><path d="M411.358,382.887H401.024a1.123,1.123,0,0,1-1.124-1.124V361.9a1.123,1.123,0,0,1,1.124-1.124h10.334a1.124,1.124,0,0,1,0,2.247h-9.211v17.612h8.087V366.361a1.124,1.124,0,1,1,2.247,0v15.4A1.123,1.123,0,0,1,411.358,382.887Z" transform="translate(-399.9 -360.78)" fill="#1b3954"/></g><g transform="translate(13.432 11.515)"><path d="M98.3,87.481a1.118,1.118,0,0,1-.218-.021,1.181,1.181,0,0,1-.21-.064,1.076,1.076,0,0,1-.194-.1,1.021,1.021,0,0,1-.172-.14,1.2,1.2,0,0,1-.14-.17,1.124,1.124,0,0,1-.1-.194,1.062,1.062,0,0,1-.064-.21,1.079,1.079,0,0,1,0-.438,1.158,1.158,0,0,1,.167-.4,1.079,1.079,0,0,1,.311-.311,1.068,1.068,0,0,1,.194-.1,1.2,1.2,0,0,1,.209-.064,1.127,1.127,0,0,1,.44,0,1.18,1.18,0,0,1,.21.064,1.124,1.124,0,0,1,.194.1,1.2,1.2,0,0,1,.17.14,1.021,1.021,0,0,1,.14.172,1.075,1.075,0,0,1,.1.194,1.181,1.181,0,0,1,.064.21,1.161,1.161,0,0,1,0,.438,1.18,1.18,0,0,1-.064.21,1.132,1.132,0,0,1-.1.194,1.123,1.123,0,0,1-.31.31,1.132,1.132,0,0,1-.194.1,1.181,1.181,0,0,1-.21.064A1.122,1.122,0,0,1,98.3,87.481Z" transform="translate(-97.18 -85.235)" fill="#1b3954"/></g><g transform="translate(3.098)"><path d="M44.258,35.607H33.924A1.123,1.123,0,0,1,32.8,34.483V14.624A1.123,1.123,0,0,1,33.924,13.5H44.258a1.123,1.123,0,0,1,1.124,1.124V22.86a1.124,1.124,0,1,1-2.247,0V15.747H35.047V33.359h8.087V29.69a1.124,1.124,0,0,1,2.247,0v4.793A1.123,1.123,0,0,1,44.258,35.607Z" transform="translate(-32.8 -13.5)" fill="#1b3954"/></g><g transform="translate(53.377 29.779)"><path d="M369.381,227.233H352.923a1.123,1.123,0,0,1-1.124-1.124v-3.737a4.652,4.652,0,0,0-4.645-4.647,1.123,1.123,0,0,1-1.124-1.124V200.144a1.123,1.123,0,0,1,1.124-1.124A23.378,23.378,0,0,1,370.5,222.371v3.737A1.123,1.123,0,0,1,369.381,227.233Zm-15.334-2.247h14.211v-2.613a21.13,21.13,0,0,0-19.98-21.074v14.273a6.9,6.9,0,0,1,5.769,6.8Z" transform="translate(-346.03 -199.02)" fill="#bf8339"/></g><g transform="translate(0 19.859)"><path d="M36.851,165.433a23.136,23.136,0,0,1-13.928-4.62,1.124,1.124,0,0,1,1.344-1.8,20.885,20.885,0,0,0,11.461,4.145V148.882a6.9,6.9,0,0,1-5.769-6.8v-2.613H15.747v2.613a20.936,20.936,0,0,0,3.931,12.252,1.124,1.124,0,1,1-1.828,1.308,23.17,23.17,0,0,1-4.35-13.559v-3.737a1.123,1.123,0,0,1,1.124-1.124H31.082a1.123,1.123,0,0,1,1.124,1.124v3.737a4.652,4.652,0,0,0,4.645,4.647,1.123,1.123,0,0,1,1.124,1.124v16.458A1.124,1.124,0,0,1,36.851,165.433Z" transform="translate(-13.5 -137.22)" fill="#bf8339"/></g></g></g></g></svg>