<svg xmlns="http://www.w3.org/2000/svg" width="13.813" height="13.192" viewBox="0 0 13.813 13.192"><g transform="translate(144 -1141.8)"><g transform="translate(-144 1141.8)"><path d="M15.813,1034.911a.588.588,0,0,1-.215.414l-3.013,2.9.713,4.213a.572.572,0,0,1,.008.138.366.366,0,0,1-.091.276.325.325,0,0,1-.249.138.6.6,0,0,1-.332-.069l-3.728-2-3.727,2a.617.617,0,0,1-.332.069.36.36,0,0,1-.266-.138.388.388,0,0,1-.083-.276s.006-.069.017-.138l.714-4.213-3.022-2.9a.6.6,0,0,1-.208-.414c0-.207.155-.345.465-.345l4.167-.622,1.868-3.8c.1-.207.241-.345.407-.345s.3.138.407.345l1.868,3.8,4.167.622c.31,0,.465.138.465.345" transform="translate(-2 -1029.8)" fill="#f1c40f"/></g></g></svg>